<svg width="1280" height="720" xmlns="http://www.w3.org/2000/svg" xmlns:xlink="http://www.w3.org/1999/xlink" overflow="hidden"><defs><clipPath id="clip0"><rect x="0" y="0" width="1280" height="720"/></clipPath></defs><g clip-path="url(#clip0)"><rect x="0" y="0" width="1280" height="720" fill="#FFFFFF"/><text fill="#59949788" font-family="'Source Sans Pro', sans-serif" font-weight="800" font-size="48" transform="matrix(0.707107 -0.707107 0.707107 0.707107 32.1552 239)">PITCH DECK</text><text fill="#59949788" font-family="'Source Sans Pro', sans-serif" font-weight="800" font-size="48" transform="matrix(0.707107 -0.707107 0.707107 0.707107 153.231 239)">PITCH DECK</text><text fill="#59949788" font-family="'Source Sans Pro', sans-serif" font-weight="800" font-size="48" transform="matrix(0.707107 -0.707107 0.707107 0.707107 274.308 239)">PITCH DECK</text><text fill="#59949788" font-family="'Source Sans Pro', sans-serif" font-weight="800" font-size="48" transform="matrix(0.707107 -0.707107 0.707107 0.707107 395.384 239)">PITCH DECK</text><text fill="#59949788" font-family="'Source Sans Pro', sans-serif" font-weight="800" font-size="48" transform="matrix(0.707107 -0.707107 0.707107 0.707107 516.46 239)">PITCH DECK</text><text fill="#59949788" font-family="'Source Sans Pro', sans-serif" font-weight="800" font-size="48" transform="matrix(0.707107 -0.707107 0.707107 0.707107 637.537 239)">PITCH DECK</text><text fill="#59949788" font-family="'Source Sans Pro', sans-serif" font-weight="800" font-size="48" transform="matrix(0.707107 -0.707107 0.707107 0.707107 758.613 239)">PITCH DECK</text><text fill="#59949788" font-family="'Source Sans Pro', sans-serif" font-weight="800" font-size="48" transform="matrix(0.707107 -0.707107 0.707107 0.707107 879.689 239)">PITCH DECK</text><text fill="#59949788" font-family="'Source Sans Pro', sans-serif" font-weight="800" font-size="48" transform="matrix(0.707107 -0.707107 0.707107 0.707107 1000.77 239)">PITCH DECK</text><text fill="#59949788" font-family="'Source Sans Pro', sans-serif" font-weight="800" font-size="48" transform="matrix(0.707107 -0.707107 0.707107 0.707107 1121.84 239)">PITCH DECK</text><text fill="#59949788" font-family="'Source Sans Pro', sans-serif" font-weight="800" font-size="48" transform="matrix(0.707107 -0.707107 0.707107 0.707107 1242.92 239)">PITCH DECK</text><text fill="#59949788" font-family="'Source Sans Pro', sans-serif" font-weight="800" font-size="48" transform="matrix(0.707107 -0.707107 0.707107 0.707107 -217.327 486)">PITCH DECK</text><text fill="#59949788" font-family="'Source Sans Pro', sans-serif" font-weight="800" font-size="48" transform="matrix(0.707107 -0.707107 0.707107 0.707107 -96.2509 486)">PITCH DECK</text><text fill="#59949788" font-family="'Source Sans Pro', sans-serif" font-weight="800" font-size="48" transform="matrix(0.707107 -0.707107 0.707107 0.707107 24.8254 486)">PITCH DECK</text><text fill="#59949788" font-family="'Source Sans Pro', sans-serif" font-weight="800" font-size="48" transform="matrix(0.707107 -0.707107 0.707107 0.707107 145.902 486)">PITCH DECK</text><text fill="#59949788" font-family="'Source Sans Pro', sans-serif" font-weight="800" font-size="48" transform="matrix(0.707107 -0.707107 0.707107 0.707107 266.978 486)">PITCH DECK</text><text fill="#59949788" font-family="'Source Sans Pro', sans-serif" font-weight="800" font-size="48" transform="matrix(0.707107 -0.707107 0.707107 0.707107 388.054 486)">PITCH DECK</text><text fill="#59949788" font-family="'Source Sans Pro', sans-serif" font-weight="800" font-size="48" transform="matrix(0.707107 -0.707107 0.707107 0.707107 509.131 486)">PITCH DECK</text><text fill="#59949788" font-family="'Source Sans Pro', sans-serif" font-weight="800" font-size="48" transform="matrix(0.707107 -0.707107 0.707107 0.707107 630.207 486)">PITCH DECK</text><text fill="#59949788" font-family="'Source Sans Pro', sans-serif" font-weight="800" font-size="48" transform="matrix(0.707107 -0.707107 0.707107 0.707107 751.283 486)">PITCH DECK</text><text fill="#59949788" font-family="'Source Sans Pro', sans-serif" font-weight="800" font-size="48" transform="matrix(0.707107 -0.707107 0.707107 0.707107 872.36 486)">PITCH DECK</text><text fill="#59949788" font-family="'Source Sans Pro', sans-serif" font-weight="800" font-size="48" transform="matrix(0.707107 -0.707107 0.707107 0.707107 993.436 486)">PITCH DECK</text><text fill="#59949788" font-family="'Source Sans Pro', sans-serif" font-weight="800" font-size="48" transform="matrix(0.707107 -0.707107 0.707107 0.707107 -103.465 734)">PITCH DECK</text><text fill="#59949788" font-family="'Source Sans Pro', sans-serif" font-weight="800" font-size="48" transform="matrix(0.707107 -0.707107 0.707107 0.707107 17.6109 734)">PITCH DECK</text><text fill="#59949788" font-family="'Source Sans Pro', sans-serif" font-weight="800" font-size="48" transform="matrix(0.707107 -0.707107 0.707107 0.707107 138.687 734)">PITCH DECK</text><text fill="#59949788" font-family="'Source Sans Pro', sans-serif" font-weight="800" font-size="48" transform="matrix(0.707107 -0.707107 0.707107 0.707107 259.764 734)">PITCH DECK</text><text fill="#59949788" font-family="'Source Sans Pro', sans-serif" font-weight="800" font-size="48" transform="matrix(0.707107 -0.707107 0.707107 0.707107 380.84 734)">PITCH DECK</text><text fill="#59949788" font-family="'Source Sans Pro', sans-serif" font-weight="800" font-size="48" transform="matrix(0.707107 -0.707107 0.707107 0.707107 501.916 734)">PITCH DECK</text><text fill="#59949788" font-family="'Source Sans Pro', sans-serif" font-weight="800" font-size="48" transform="matrix(0.707107 -0.707107 0.707107 0.707107 622.992 734)">PITCH DECK</text><text fill="#59949788" font-family="'Source Sans Pro', sans-serif" font-weight="800" font-size="48" transform="matrix(0.707107 -0.707107 0.707107 0.707107 744.069 734)">PITCH DECK</text><text fill="#59949788" font-family="'Source Sans Pro', sans-serif" font-weight="800" font-size="48" transform="matrix(0.707107 -0.707107 0.707107 0.707107 865.145 734)">PITCH DECK</text><text fill="#59949788" font-family="'Source Sans Pro', sans-serif" font-weight="800" font-size="48" transform="matrix(0.707107 -0.707107 0.707107 0.707107 1121.84 486)">PITCH DECK</text><text fill="#59949788" font-family="'Source Sans Pro', sans-serif" font-weight="800" font-size="48" transform="matrix(0.707107 -0.707107 0.707107 0.707107 1242.92 486)">PITCH DECK</text><text fill="#59949788" font-family="'Source Sans Pro', sans-serif" font-weight="800" font-size="48" transform="matrix(0.707107 -0.707107 0.707107 0.707107 993.436 734)">PITCH DECK</text><text fill="#59949788" font-family="'Source Sans Pro', sans-serif" font-weight="800" font-size="48" transform="matrix(0.707107 -0.707107 0.707107 0.707107 1121.84 734)">PITCH DECK</text><text fill="#59949788" font-family="'Source Sans Pro', sans-serif" font-weight="800" font-size="48" transform="matrix(0.707107 -0.707107 0.707107 0.707107 1253.52 734)">PITCH DECK</text><text fill="#59949788" font-family="'Source Sans Pro', sans-serif" font-weight="800" font-size="48" transform="matrix(0.707107 -0.707107 0.707107 0.707107 -96.2513 239)">PITCH DECK</text></g></svg>